<svg xmlns="http://www.w3.org/2000/svg" width="32.127" height="23.477" viewBox="0 0 32.127 23.477">
  <defs>
    <style>
      .cls-1 {
        fill: #fff;
        stroke: #fff;
        stroke-width: 0.5px;
      }
    </style>
  </defs>
  <g id="_001-book" data-name="001-book" transform="translate(0.25 0.25)">
    <path id="Path_2080" data-name="Path 2080" class="cls-1" d="M296.326,157.811h2.7a.405.405,0,1,0,0-.811h-2.7a.405.405,0,0,0,0,.811Z" transform="translate(-277.408 -152.202)"/>
    <path id="Path_2081" data-name="Path 2081" class="cls-1" d="M302.707,206h-6.382a.405.405,0,1,0,0,.811h6.382a.405.405,0,0,0,0-.811Z" transform="translate(-277.408 -197.89)"/>
    <path id="Path_2082" data-name="Path 2082" class="cls-1" d="M302.707,255h-6.382a.405.405,0,1,0,0,.811h6.382a.405.405,0,0,0,0-.811Z" transform="translate(-277.408 -243.579)"/>
    <path id="Path_2083" data-name="Path 2083" class="cls-1" d="M302.707,304h-6.382a.405.405,0,1,0,0,.811h6.382a.405.405,0,0,0,0-.811Z" transform="translate(-277.408 -289.268)"/>
    <path id="Path_2084" data-name="Path 2084" class="cls-1" d="M116.437,255h-6.382a.405.405,0,1,0,0,.811h6.382a.405.405,0,1,0,0-.811Z" transform="translate(-103.727 -243.579)"/>
    <path id="Path_2085" data-name="Path 2085" class="cls-1" d="M116.437,304h-6.382a.405.405,0,1,0,0,.811h6.382a.405.405,0,1,0,0-.811Z" transform="translate(-103.727 -289.268)"/>
    <path id="Path_2086" data-name="Path 2086" class="cls-1" d="M52.379,89.176H50.857v-.649A2.523,2.523,0,0,0,48.35,86H41.5a2.493,2.493,0,0,0-.858.159l-2.243.819a1.7,1.7,0,0,1-1.162,0l-2.242-.821A2.5,2.5,0,0,0,34.131,86H30.2a.405.405,0,0,0,0,.811h3.932a1.689,1.689,0,0,1,.581.11l2.243.819a2.515,2.515,0,0,0,.453.121v18.588a1.7,1.7,0,0,1-.176-.052l-2.242-.8a2.474,2.474,0,0,0-.859-.135H27.277a1.728,1.728,0,0,1-1.7-1.735v-15.2a1.711,1.711,0,0,1,1.7-1.716h1.751a.405.405,0,0,0,0-.811H27.277a2.523,2.523,0,0,0-2.507,2.527v.649H23.248A1.259,1.259,0,0,0,22,90.408v17.338a1.258,1.258,0,0,0,1.248,1.231H36.192a.414.414,0,0,0,.142-.033,4.151,4.151,0,0,1,2.959,0,.412.412,0,0,0,.143.031H52.379a1.258,1.258,0,0,0,1.248-1.231v-1.968a.405.405,0,0,0-.811,0v1.968a.447.447,0,0,1-.437.42H39.909v-1.45l1.018-.357a1.608,1.608,0,0,1,.569-.085H48.35a2.539,2.539,0,0,0,2.507-2.546V89.987h1.523a.448.448,0,0,1,.437.421v13.861a.405.405,0,0,0,.811,0V90.408A1.259,1.259,0,0,0,52.379,89.176Zm-16.661,18.99H23.248a.447.447,0,0,1-.437-.42V90.408a.448.448,0,0,1,.437-.421h1.523v13.74a2.54,2.54,0,0,0,2.507,2.546h6.854a1.608,1.608,0,0,1,.57.086l1.017.357Zm3.379-.147a5.191,5.191,0,0,0-2.568,0v-1.008l.415.147a2.534,2.534,0,0,0,.863.151,2.584,2.584,0,0,0,.872-.151l.418-.147Zm10.948-4.292a1.728,1.728,0,0,1-1.7,1.735H41.5a2.473,2.473,0,0,0-.858.135l-2.243.807a1.638,1.638,0,0,1-.176.044V87.86a2.5,2.5,0,0,0,.453-.117l2.244-.823a1.687,1.687,0,0,1,.581-.109H48.35a1.711,1.711,0,0,1,1.7,1.716Z" transform="translate(-22 -86)"/>
    <path id="Path_2087" data-name="Path 2087" class="cls-1" d="M116.758,157h-6.353a.405.405,0,0,0-.405.405v3.582a.405.405,0,0,0,.405.405h6.353a.405.405,0,0,0,.405-.405v-3.582A.405.405,0,0,0,116.758,157Zm-.405,3.582h-5.542v-2.771h5.542Z" transform="translate(-104.053 -152.202)"/>
  </g>
</svg>
