<svg xmlns="http://www.w3.org/2000/svg" width="48.005" height="35.012" viewBox="0 0 48.005 35.012">
  <g id="_001-book" data-name="001-book" transform="translate(-21.75 -85.75)">
    <path id="Path_2080" data-name="Path 2080" d="M296.529,158.218h4.048a.609.609,0,1,0,0-1.218h-4.048a.609.609,0,1,0,0,1.218Z" transform="translate(-246.115 -63.793)" fill="#276462" stroke="#276462" stroke-width="0.5"/>
    <path id="Path_2081" data-name="Path 2081" d="M306.114,206h-9.585a.609.609,0,1,0,0,1.218h9.585a.609.609,0,0,0,0-1.218Z" transform="translate(-246.115 -107.819)" fill="#276462" stroke="#276462" stroke-width="0.5"/>
    <path id="Path_2082" data-name="Path 2082" d="M306.114,255h-9.585a.609.609,0,1,0,0,1.218h9.585a.609.609,0,0,0,0-1.218Z" transform="translate(-246.115 -151.845)" fill="#276462" stroke="#276462" stroke-width="0.5"/>
    <path id="Path_2083" data-name="Path 2083" d="M306.114,304h-9.585a.609.609,0,1,0,0,1.218h9.585a.609.609,0,0,0,0-1.218Z" transform="translate(-246.115 -195.871)" fill="#276462" stroke="#276462" stroke-width="0.5"/>
    <path id="Path_2084" data-name="Path 2084" d="M119.844,255h-9.585a.609.609,0,1,0,0,1.218h9.585a.609.609,0,1,0,0-1.218Z" transform="translate(-78.753 -151.845)" fill="#276462" stroke="#276462" stroke-width="0.5"/>
    <path id="Path_2085" data-name="Path 2085" d="M119.844,304h-9.585a.609.609,0,1,0,0,1.218h9.585a.609.609,0,1,0,0-1.218Z" transform="translate(-78.753 -195.871)" fill="#276462" stroke="#276462" stroke-width="0.5"/>
    <path id="Path_2086" data-name="Path 2086" d="M67.63,90.771H65.343V89.8A3.789,3.789,0,0,0,61.578,86H51.284a3.745,3.745,0,0,0-1.289.238l-3.369,1.229a2.56,2.56,0,0,1-1.746,0l-3.367-1.233A3.749,3.749,0,0,0,40.221,86H34.316a.609.609,0,0,0,0,1.218h5.905a2.537,2.537,0,0,1,.873.165l3.369,1.23a3.778,3.778,0,0,0,.68.182v27.919a2.564,2.564,0,0,1-.264-.078l-3.367-1.2a3.716,3.716,0,0,0-1.291-.2H29.927a2.6,2.6,0,0,1-2.547-2.607V89.8a2.57,2.57,0,0,1,2.547-2.577h2.63a.609.609,0,0,0,0-1.218h-2.63a3.789,3.789,0,0,0-3.765,3.8v.975H23.875A1.891,1.891,0,0,0,22,92.621v26.043a1.889,1.889,0,0,0,1.875,1.848H43.316a.622.622,0,0,0,.213-.049,6.235,6.235,0,0,1,4.445,0,.618.618,0,0,0,.214.047H67.63a1.889,1.889,0,0,0,1.875-1.848v-2.956a.609.609,0,0,0-1.218,0v2.956a.671.671,0,0,1-.657.63H48.9v-2.178l1.529-.536a2.414,2.414,0,0,1,.855-.128H61.578a3.814,3.814,0,0,0,3.765-3.825V91.989H67.63a.672.672,0,0,1,.657.632V113.44a.609.609,0,1,0,1.218,0V92.621A1.891,1.891,0,0,0,67.63,90.771ZM42.606,119.294H23.875a.671.671,0,0,1-.657-.63V92.621a.672.672,0,0,1,.657-.632h2.287v20.638a3.815,3.815,0,0,0,3.765,3.825H40.221a2.416,2.416,0,0,1,.857.129l1.528.536Zm5.075-.221a7.8,7.8,0,0,0-3.857,0v-1.515l.623.221a3.807,3.807,0,0,0,1.3.227,3.881,3.881,0,0,0,1.31-.227l.627-.221Zm16.444-6.446a2.6,2.6,0,0,1-2.547,2.607H51.284a3.715,3.715,0,0,0-1.289.2l-3.369,1.211a2.463,2.463,0,0,1-.264.065V88.794a3.763,3.763,0,0,0,.68-.176l3.37-1.235a2.534,2.534,0,0,1,.872-.164H61.578A2.57,2.57,0,0,1,64.125,89.8Z" transform="translate(0 0)" fill="#276462" stroke="#276462" stroke-width="0.5"/>
    <path id="Path_2087" data-name="Path 2087" d="M120.151,157h-9.542a.609.609,0,0,0-.609.609v5.38a.609.609,0,0,0,.609.609h9.542a.609.609,0,0,0,.609-.609v-5.38A.609.609,0,0,0,120.151,157Zm-.609,5.38h-8.324v-4.162h8.324Z" transform="translate(-79.067 -63.793)" fill="#276462" stroke="#276462" stroke-width="0.5"/>
  </g>
</svg>
