<svg id="computer" xmlns="http://www.w3.org/2000/svg" width="26.845" height="26.845" viewBox="0 0 26.845 26.845">
  <defs>
    <style>
      .cls-1 {
        fill: #fff;
      }
    </style>
  </defs>
  <path id="Path_2039" data-name="Path 2039" class="cls-1" d="M24.486,0H2.359A2.362,2.362,0,0,0,0,2.359V19.242A2.362,2.362,0,0,0,2.359,21.6H9.842l-.355,1.774a2.366,2.366,0,0,1-2.314,1.9H5.033a.786.786,0,0,0,0,1.573H21.812a.786.786,0,0,0,0-1.573h-2.14a2.366,2.366,0,0,1-2.314-1.9L17,21.6h7.482a2.362,2.362,0,0,0,2.359-2.359V2.359A2.362,2.362,0,0,0,24.486,0Zm-8.67,23.684a3.909,3.909,0,0,0,.713,1.588H10.317a3.908,3.908,0,0,0,.713-1.588l.416-2.082H15.4Zm9.456-4.441a.787.787,0,0,1-.786.786H2.359a.787.787,0,0,1-.786-.786V2.359a.787.787,0,0,1,.786-.786H24.486a.787.787,0,0,1,.786.786Z"/>
  <path id="Path_2040" data-name="Path 2040" class="cls-1" d="M171.786,69.962h7.34a.786.786,0,0,0,.786-.786v-.524a4.459,4.459,0,0,0-2.276-3.884,2.884,2.884,0,1,0-4.362,0A4.459,4.459,0,0,0,171,68.651v.524A.786.786,0,0,0,171.786,69.962Zm2.359-7.078a1.311,1.311,0,1,1,1.311,1.311A1.312,1.312,0,0,1,174.146,62.884Zm1.311,2.884a2.888,2.888,0,0,1,2.872,2.622h-5.744A2.888,2.888,0,0,1,175.457,65.767Z" transform="translate(-162.034 -56.854)"/>
  <path id="Path_2041" data-name="Path 2041" class="cls-1" d="M80.662,283.049H66.243v-.262a.786.786,0,0,0-1.573,0v.262H61.786a.786.786,0,1,0,0,1.573H64.67v.262a.786.786,0,1,0,1.573,0v-.262H80.662a.786.786,0,0,0,0-1.573Z" transform="translate(-57.802 -267.214)"/>
</svg>
