<svg id="computer" xmlns="http://www.w3.org/2000/svg" width="42.344" height="42.344" viewBox="0 0 42.344 42.344">
  <path id="Path_2039" data-name="Path 2039" d="M38.623,0H3.722A3.726,3.726,0,0,0,0,3.722V30.352a3.726,3.726,0,0,0,3.722,3.722h11.8l-.559,2.8a3.732,3.732,0,0,1-3.649,2.992H7.94a1.241,1.241,0,0,0,0,2.481H34.4a1.241,1.241,0,0,0,0-2.481H31.03a3.732,3.732,0,0,1-3.649-2.992l-.559-2.8h11.8a3.726,3.726,0,0,0,3.722-3.722V3.722A3.726,3.726,0,0,0,38.623,0ZM24.947,37.358a6.166,6.166,0,0,0,1.124,2.505h-9.8A6.165,6.165,0,0,0,17.4,37.358l.657-3.284H24.29Zm14.916-7.006a1.242,1.242,0,0,1-1.241,1.241H3.722a1.242,1.242,0,0,1-1.241-1.241V3.722A1.242,1.242,0,0,1,3.722,2.481h34.9a1.242,1.242,0,0,1,1.241,1.241Z" fill="#276462"/>
  <path id="Path_2040" data-name="Path 2040" d="M172.241,75.714h11.579a1.241,1.241,0,0,0,1.241-1.241v-.827a7.033,7.033,0,0,0-3.589-6.127,4.549,4.549,0,1,0-6.881,0A7.033,7.033,0,0,0,171,73.646v.827A1.241,1.241,0,0,0,172.241,75.714Zm3.722-11.165a2.068,2.068,0,1,1,2.068,2.068A2.07,2.07,0,0,1,175.962,64.549ZM178.03,69.1a4.555,4.555,0,0,1,4.53,4.135H173.5A4.555,4.555,0,0,1,178.03,69.1Z" transform="translate(-156.858 -55.038)" fill="#276462"/>
  <path id="Path_2041" data-name="Path 2041" d="M92.014,283.654H69.27v-.414a1.241,1.241,0,0,0-2.481,0v.414H62.241a1.241,1.241,0,1,0,0,2.481h4.549v.414a1.241,1.241,0,1,0,2.481,0v-.414H92.014a1.241,1.241,0,1,0,0-2.481Z" transform="translate(-55.955 -258.677)" fill="#276462"/>
</svg>
