<svg id="_001-discount" data-name="001-discount" xmlns="http://www.w3.org/2000/svg" width="27.714" height="28.883" viewBox="0 0 27.714 28.883">
  <defs>
    <style>
      .cls-1 {
        fill: #fff;
      }
    </style>
  </defs>
  <g id="Group_2399" data-name="Group 2399">
    <g id="Group_2398" data-name="Group 2398" transform="translate(0 0)">
      <path id="Path_2143" data-name="Path 2143" class="cls-1" d="M36.737,14.814a.846.846,0,0,1,0-.748l1.077-2.2a2.507,2.507,0,0,0-1.082-3.33l-2.167-1.15a.846.846,0,0,1-.44-.605L33.7,4.361A2.507,2.507,0,0,0,30.87,2.3l-2.429.344a.846.846,0,0,1-.712-.231L25.966.71a2.507,2.507,0,0,0-3.5,0L20.7,2.416a.847.847,0,0,1-.712.231L17.562,2.3A2.507,2.507,0,0,0,14.73,4.361l-.424,2.416a.847.847,0,0,1-.44.605L11.7,8.532a2.507,2.507,0,0,0-1.082,3.33l1.077,2.2a.846.846,0,0,1,0,.748l-1.077,2.2a2.507,2.507,0,0,0,1.082,3.33l2.167,1.15a.846.846,0,0,1,.44.605l.424,2.416A2.506,2.506,0,0,0,17.2,26.6a2.577,2.577,0,0,0,.361-.025l2.429-.344a.846.846,0,0,1,.712.231l1.763,1.705a2.507,2.507,0,0,0,3.5,0l1.763-1.705a.847.847,0,0,1,.712-.231l2.429.344A2.507,2.507,0,0,0,33.7,24.518l.424-2.416a.847.847,0,0,1,.44-.605l2.167-1.15a2.507,2.507,0,0,0,1.082-3.33Zm-.785,4.062-2.167,1.15a2.5,2.5,0,0,0-1.3,1.789l-.424,2.416a.848.848,0,0,1-.958.7l-2.429-.344a2.5,2.5,0,0,0-2.1.683l-1.763,1.705a.848.848,0,0,1-1.184,0l-1.763-1.705a2.5,2.5,0,0,0-1.745-.709,2.557,2.557,0,0,0-.358.025l-2.429.344a.849.849,0,0,1-.958-.7l-.424-2.416a2.5,2.5,0,0,0-1.3-1.789l-2.167-1.15a.848.848,0,0,1-.366-1.126l1.077-2.2a2.5,2.5,0,0,0,0-2.211l-1.077-2.2A.848.848,0,0,1,12.48,10l2.167-1.15a2.5,2.5,0,0,0,1.3-1.789l.424-2.416a.848.848,0,0,1,.958-.7l2.429.344a2.5,2.5,0,0,0,2.1-.683l1.763-1.705a.848.848,0,0,1,1.184,0l1.763,1.705a2.5,2.5,0,0,0,2.1.683L31.1,3.953a.848.848,0,0,1,.958.7l.424,2.416a2.5,2.5,0,0,0,1.3,1.789L35.951,10a.848.848,0,0,1,.366,1.126l-1.077,2.2a2.5,2.5,0,0,0,0,2.211l1.077,2.2A.848.848,0,0,1,35.951,18.875Z" transform="translate(-10.359 0.002)"/>
    </g>
  </g>
  <g id="Group_2401" data-name="Group 2401" transform="translate(7.527 8.112)">
    <g id="Group_2400" data-name="Group 2400">
      <path id="Path_2144" data-name="Path 2144" class="cls-1" d="M156.207,144.035a.833.833,0,0,0-1.178,0l-10.994,10.994a.833.833,0,1,0,1.178,1.178l10.994-10.994A.833.833,0,0,0,156.207,144.035Z" transform="translate(-143.791 -143.791)"/>
    </g>
  </g>
  <g id="Group_2403" data-name="Group 2403" transform="translate(7.471 6.945)">
    <g id="Group_2402" data-name="Group 2402" transform="translate(0)">
      <path id="Path_2145" data-name="Path 2145" class="cls-1" d="M145.856,123.116a3.054,3.054,0,1,0,3.054,3.054A3.058,3.058,0,0,0,145.856,123.116Zm0,4.442a1.388,1.388,0,1,1,1.388-1.388A1.39,1.39,0,0,1,145.856,127.558Z" transform="translate(-142.802 -123.116)"/>
    </g>
  </g>
  <g id="Group_2405" data-name="Group 2405" transform="translate(14.135 15.83)">
    <g id="Group_2404" data-name="Group 2404" transform="translate(0)">
      <path id="Path_2146" data-name="Path 2146" class="cls-1" d="M263.976,280.61a3.054,3.054,0,1,0,3.054,3.054A3.058,3.058,0,0,0,263.976,280.61Zm0,4.442a1.388,1.388,0,1,1,1.388-1.388A1.39,1.39,0,0,1,263.976,285.052Z" transform="translate(-260.922 -280.61)"/>
    </g>
  </g>
</svg>
