<svg xmlns="http://www.w3.org/2000/svg" width="34.732" height="31.838" viewBox="0 0 34.732 31.838">
  <defs>
    <style>
      .cls-1 {
        fill: #fff;
      }
    </style>
  </defs>
  <g id="_001-add" data-name="001-add" transform="translate(0 -8.778)">
    <path id="Path_2124" data-name="Path 2124" class="cls-1" d="M13.053,29.5H3.618A3.622,3.622,0,0,1,0,25.878V5.618A3.622,3.622,0,0,1,3.618,2H20.984A3.622,3.622,0,0,1,24.6,5.618v5.875a.724.724,0,1,1-1.447,0V5.618a2.173,2.173,0,0,0-2.171-2.171H3.618A2.173,2.173,0,0,0,1.447,5.618v20.26a2.173,2.173,0,0,0,2.171,2.171h9.436a.724.724,0,1,1,0,1.447Z" transform="translate(0 6.778)"/>
    <path id="Path_2128" data-name="Path 2128" class="cls-1" d="M13.159,13.447H3.724a.724.724,0,0,1,0-1.447h9.436a.724.724,0,1,1,0,1.447Z" transform="translate(1.341 11.25)"/>
    <path id="Path_2129" data-name="Path 2129" class="cls-1" d="M10.959,9.447H3.724A.724.724,0,1,1,3.724,8h7.236a.724.724,0,0,1,0,1.447Z" transform="translate(1.341 9.461)"/>
    <path id="Path_2130" data-name="Path 2130" class="cls-1" d="M20.407,29.813a9.407,9.407,0,1,1,9.407-9.407A9.417,9.417,0,0,1,20.407,29.813Zm0-17.366a7.959,7.959,0,1,0,7.959,7.959A7.969,7.969,0,0,0,20.407,12.447Z" transform="translate(4.919 10.802)"/>
    <path id="Path_2131" data-name="Path 2131" class="cls-1" d="M17.724,24.13A.724.724,0,0,1,17,23.407V14.724a.724.724,0,1,1,1.447,0v8.683A.724.724,0,0,1,17.724,24.13Z" transform="translate(7.602 12.144)"/>
    <path id="Path_2132" data-name="Path 2132" class="cls-1" d="M23.407,18.447H14.724a.724.724,0,1,1,0-1.447h8.683a.724.724,0,0,1,0,1.447Z" transform="translate(6.26 13.485)"/>
  </g>
</svg>
