<svg xmlns="http://www.w3.org/2000/svg" width="17.484" height="10.199" viewBox="0 0 17.484 10.199">
  <defs>
    <style>
      .cls-1 {
        fill: #2b2b2b;
      }
    </style>
  </defs>
  <path id="iconmonstr-eye-4" class="cls-1" d="M8.753,6.457a9.506,9.506,0,0,1,6.924,3.377,11.539,11.539,0,0,1-3.414,3,7.114,7.114,0,0,1-3.509.912c-3.22,0-5.777-2.576-6.9-3.939a9.6,9.6,0,0,1,6.9-3.346ZM8.753,5C3.239,5,0,9.773,0,9.773S3.522,15.2,8.753,15.2c5.634,0,8.731-5.427,8.731-5.427S14.358,5,8.753,5ZM8.742,8.643A1.457,1.457,0,1,1,7.285,10.1,1.458,1.458,0,0,1,8.742,8.643Zm0-1.457A2.914,2.914,0,1,0,11.656,10.1,2.915,2.915,0,0,0,8.742,7.186Z" transform="translate(0 -5)"/>
</svg>
