<?xml version="1.0" encoding="utf-8"?>
<!-- Generator: Adobe Illustrator 23.1.0, SVG Export Plug-In . SVG Version: 6.00 Build 0)  -->
<svg version="1.1" id="home" xmlns="http://www.w3.org/2000/svg" xmlns:xlink="http://www.w3.org/1999/xlink" x="0px" y="0px"
	 viewBox="0 0 27.7 26" style="enable-background:new 0 0 27.7 26;" xml:space="preserve">
<style type="text/css">
	.st0{fill:#FFFFFF;}
</style>
<path id="Path_2042" class="st0" d="M23,26H4.7c-1.4,0-2.5-1.1-2.5-2.5V10.4c0-0.5,0.4-0.9,0.8-0.9c0.5,0,0.9,0.4,0.9,0.8
	c0,0,0,0,0,0.1v13.1c0,0.4,0.3,0.8,0.8,0.8H23c0.4,0,0.8-0.3,0.8-0.8V10.4c0-0.5,0.4-0.9,0.8-0.9c0.5,0,0.9,0.4,0.9,0.8
	c0,0,0,0,0,0.1v13.1C25.5,24.9,24.4,26,23,26z"/>
<path id="Path_2043" class="st0" d="M26.8,13.4c-0.2,0-0.4-0.1-0.6-0.3L15.5,2.4c-0.9-0.9-2.3-0.9-3.2,0L1.5,13.2
	c-0.3,0.3-0.9,0.3-1.2,0c-0.3-0.3-0.3-0.8,0-1.2L11,1.2c1.6-1.6,4.1-1.6,5.7,0l10.8,10.8c0.3,0.3,0.3,0.9,0,1.2
	C27.3,13.3,27.1,13.4,26.8,13.4z"/>
<path id="Path_2044" class="st0" d="M17.3,26h-6.9c-0.5,0-0.9-0.4-0.9-0.9v-7.7c0-1.5,1.2-2.7,2.7-2.7h3.2c1.5,0,2.7,1.2,2.7,2.7
	v7.7C18.2,25.6,17.8,26,17.3,26z M11.3,24.2h5.2v-6.8c0-0.5-0.4-1-1-1h-3.2c-0.5,0-1,0.4-1,1V24.2z"/>
</svg>
