<svg xmlns="http://www.w3.org/2000/svg" xmlns:xlink="http://www.w3.org/1999/xlink" width="1741" height="71.32" viewBox="0 0 1741 71.32">
  <defs>
    <filter id="Path_2118" x="-9" y="-6" width="1759" height="89.32" filterUnits="userSpaceOnUse">
      <feOffset dy="3" input="SourceAlpha"/>
      <feGaussianBlur stdDeviation="3" result="blur"/>
      <feFlood flood-opacity="0.051"/>
      <feComposite operator="in" in2="blur"/>
      <feComposite in="SourceGraphic"/>
    </filter>
    <clipPath id="clip-path">
      <g transform="matrix(1, 0, 0, 1, 0, 0)" filter="url(#Path_2118)">
        <path id="Path_2118-2" data-name="Path 2118" d="M-1160,0H541c11.046,0,20,9.532,20,21.29V50.031c0,11.758-8.954,21.29-20,21.29H-1160c-11.046,0-20-9.532-20-21.29V21.29C-1180,9.532-1171.046,0-1160,0Z" transform="translate(1329 116)" fill="#fff" stroke="#ededed" stroke-width="1"/>
      </g>
    </clipPath>
  </defs>
  <g id="Mask_Group_4" data-name="Mask Group 4" transform="translate(-149 -116)" clip-path="url(#clip-path)">
    <path id="Path_2117" data-name="Path 2117" d="M78.567,41.36l3.952-9.384a2.586,2.586,0,0,0-.819-3.062l-8.109-6.16-1.284-10.1a2.586,2.586,0,0,0-2.238-2.238L59.966,9.13,53.807,1.022A2.587,2.587,0,0,0,50.746.2L41.36,4.154,31.977.2a2.585,2.585,0,0,0-3.062.819L22.755,9.13l-10.1,1.284a2.586,2.586,0,0,0-2.238,2.238L9.13,22.755,1.022,28.914A2.585,2.585,0,0,0,.2,31.975L4.154,41.36.2,50.744a2.586,2.586,0,0,0,.819,3.062l8.109,6.16,1.284,10.1a2.586,2.586,0,0,0,2.238,2.238l10.1,1.284L28.914,81.7a2.585,2.585,0,0,0,2.06,1.021c.741,0,.324.083,10.387-4.154l9.384,3.952a2.585,2.585,0,0,0,3.062-.819l6.16-8.109,10.1-1.284a2.586,2.586,0,0,0,2.238-2.238l1.284-10.1L81.7,53.807a2.585,2.585,0,0,0,.819-3.062Z" transform="translate(415.643 110.642)" fill="#6caaa8"/>
    <rect id="Rectangle_1902" data-name="Rectangle 1902" width="354" height="127" transform="translate(107 91)" fill="#6caaa8"/>
  </g>
</svg>
