<svg xmlns="http://www.w3.org/2000/svg" width="29.064" height="27.876" viewBox="0 0 29.064 27.876">
  <defs>
    <style>
      .cls-1 {
        fill: #676767;
        stroke: #707070;
      }
    </style>
  </defs>
  <g id="XMLID_2123_" transform="translate(-466.039 -340.58)">
    <g id="XMLID_2119_" transform="translate(466.57 341.08)">
      <path id="XMLID_871_" class="cls-1" d="M27.393,26.85a2.23,2.23,0,0,1-1.314-.435,2.2,2.2,0,0,1-.812-2.5L27.55,16.9,21.575,12.59a2.237,2.237,0,0,1,1.309-4.05H30.25L32.5,1.552A2.2,2.2,0,0,1,34.623,0h0a2.2,2.2,0,0,1,2.127,1.547L39.021,8.54h.8a.595.595,0,0,1,0,1.19H38.588a.6.6,0,0,1-.566-.411l-2.4-7.4a1.02,1.02,0,0,0-1-.724h0a1.02,1.02,0,0,0-1,.726l-2.38,7.4a.6.6,0,0,1-.566.413h-7.8a1.047,1.047,0,0,0-.613,1.9L28.6,16.193a.6.6,0,0,1,.217.667L26.4,24.281a1.047,1.047,0,0,0,1.612,1.17l6.309-4.6a.6.6,0,0,1,.7,0L41.3,25.424a1.047,1.047,0,0,0,1.61-1.173l-2.423-7.384a.6.6,0,0,1,.216-.667l6.31-4.575A1.047,1.047,0,0,0,46.4,9.73H45.173a.595.595,0,0,1,0-1.19H46.4a2.237,2.237,0,0,1,1.313,4.047l-5.959,4.321,2.287,6.972a2.237,2.237,0,0,1-3.44,2.506l-5.936-4.315L28.71,26.413a2.23,2.23,0,0,1-1.317.437Z" transform="translate(-20.643 0)"/>
    </g>
  </g>
</svg>
