<?xml version="1.0" encoding="utf-8"?>
<!-- Generator: Adobe Illustrator 23.1.0, SVG Export Plug-In . SVG Version: 6.00 Build 0)  -->
<svg version="1.1" id="Layer_1" xmlns="http://www.w3.org/2000/svg" xmlns:xlink="http://www.w3.org/1999/xlink" x="0px" y="0px"
	 viewBox="0 0 29.1 27.9" style="enable-background:new 0 0 29.1 27.9;" xml:space="preserve">
<style type="text/css">
	.st0{fill:#FFFFFF;stroke:#FFFFFF;}
</style>
<g id="XMLID_2123_" transform="translate(-466.039 -340.58)">
	<g id="XMLID_2119_" transform="translate(466.57 341.08)">
		<path id="XMLID_871_" class="st0" d="M6.8,26.9c-0.5,0-0.9-0.2-1.3-0.4c-0.8-0.6-1.1-1.6-0.8-2.5l2.3-7l-6-4.3
			c-1-0.7-1.2-2.1-0.5-3.1c0.4-0.6,1.1-0.9,1.8-0.9h7.4l2.3-7C12.1,0.6,13,0,14,0l0,0c1,0,1.8,0.6,2.1,1.5l2.3,7h0.8
			c0.3,0,0.6,0.3,0.6,0.6c0,0.3-0.3,0.6-0.6,0.6h-1.2c-0.3,0-0.5-0.2-0.6-0.4L15,1.9c-0.1-0.4-0.5-0.7-1-0.7l0,0
			c-0.5,0-0.9,0.3-1,0.7l-2.4,7.4c-0.1,0.2-0.3,0.4-0.6,0.4H2.2c-0.6,0-1,0.5-1.1,1c0,0.3,0.2,0.7,0.4,0.9L8,16.2
			c0.2,0.2,0.3,0.4,0.2,0.7l-2.4,7.4c-0.2,0.5,0.1,1.1,0.7,1.3c0.3,0.1,0.7,0,0.9-0.1l6.3-4.6c0.2-0.2,0.5-0.2,0.7,0l6.3,4.6
			c0.5,0.3,1.1,0.2,1.5-0.2c0.2-0.3,0.3-0.6,0.1-0.9l-2.4-7.4c-0.1-0.2,0-0.5,0.2-0.7l6.3-4.6c0.5-0.3,0.6-1,0.2-1.5
			c-0.2-0.3-0.5-0.4-0.8-0.4h-1.2c-0.3,0-0.6-0.3-0.6-0.6s0.3-0.6,0.6-0.6h1.2c1.2,0,2.2,1,2.2,2.2c0,0.7-0.3,1.4-0.9,1.8l-6,4.3
			l2.3,7c0.4,1.2-0.3,2.4-1.4,2.8c-0.7,0.2-1.4,0.1-2-0.3L14,22.1l-6,4.3C7.7,26.7,7.2,26.8,6.8,26.9z"/>
	</g>
</g>
</svg>
