<svg xmlns="http://www.w3.org/2000/svg" width="81.957" height="20.575" viewBox="0 0 81.957 20.575">
  <g id="Group_2193" data-name="Group 2193" transform="translate(-1131.801 -944.259)">
    <g id="Group_2191" data-name="Group 2191" transform="translate(588 111.045)">
      <rect id="Rectangle_1887" data-name="Rectangle 1887" width="2.212" height="11.436" transform="translate(597.478 838.226)" fill="#005051"/>
      <path id="Path_2047" data-name="Path 2047" d="M611.488,840.064h1.733v-1.837h-1.733v-5.013h-2.212v5.013h-1.733v1.837h1.733c0,.8-.013,3.043-.013,3.715a9.955,9.955,0,0,0,10.633,10V851.87a8,8,0,0,1-8.408-8.091v-3.715Z" fill="#005051"/>
      <path id="Path_2048" data-name="Path 2048" d="M623.442,843.931a4.19,4.19,0,0,1-4.178,4.243h-.013a4.25,4.25,0,0,1,0-8.5h.013a4.219,4.219,0,0,1,4.178,4.256m2.316,5.731V838.226h-2.212V839.7a6.111,6.111,0,0,0-4.3-1.76h-.013a5.991,5.991,0,1,0,0,11.98h.013a6.17,6.17,0,0,0,4.3-1.759v1.5Z" fill="#005051"/>
      <path id="Path_2049" data-name="Path 2049" d="M591.947,849.662l4.657-11.436h-2.225l-3.118,7.7-3.13-7.7h-2.226l4.658,11.436Z" fill="#005051"/>
      <g id="Group_2190" data-name="Group 2190">
        <g id="Group_2192" data-name="Group 2192">
          <path id="Path_2050" data-name="Path 2050" d="M584.767,843.931a4.178,4.178,0,0,1-4.153,4.243H580.6a4.25,4.25,0,0,1,0-8.5h.013a4.2,4.2,0,0,1,4.153,4.256m1.914,0a6.063,6.063,0,0,0-6.08-5.99h-.012a5.99,5.99,0,1,0,0,11.979h.012a6.062,6.062,0,0,0,6.08-5.989" fill="#005051"/>
          <path id="Path_2051" data-name="Path 2051" d="M572.833,840.064h1.733v-1.837h-1.733v-5.013h-2.212v5.013h-1.733v1.837h1.733c0,.8-.013,3.043-.013,3.715a9.955,9.955,0,0,0,10.633,10V851.87a8,8,0,0,1-8.408-8.091v-3.715Z" fill="#005051"/>
          <path id="Path_2052" data-name="Path 2052" d="M567.508,843.724a4.191,4.191,0,0,1-4.178,4.243h-.014a4.25,4.25,0,0,1,0-8.5h.014a4.219,4.219,0,0,1,4.178,4.256m1.914,0a6.059,6.059,0,0,0-6.106-5.989H563.3a6.149,6.149,0,0,0-4.244,1.707v-1.514h-2.212v15.666h2.212v-5.588a6.2,6.2,0,0,0,4.244,1.708h.012a6.077,6.077,0,0,0,6.106-5.99" fill="#005051"/>
          <path id="Path_2053" data-name="Path 2053" d="M554.085,843.517a4.191,4.191,0,0,1-4.178,4.243h-.013a4.25,4.25,0,0,1,0-8.5h.013a4.219,4.219,0,0,1,4.178,4.256m1.9,0a6.048,6.048,0,0,0-6.093-5.989h-.013a5.984,5.984,0,1,0,0,11.966h.013a6.046,6.046,0,0,0,6.093-5.977" fill="#005051"/>
          <path id="Path_2054" data-name="Path 2054" d="M606.737,839.006a3.115,3.115,0,0,0-2.005-.78,3.158,3.158,0,0,0-3.3,3.136c0,3.489,5,2.64,5,5.116a1.685,1.685,0,0,1-1.791,1.7c-1.25,0-1.792-.73-2.264-1.768l-1.674.708a3.985,3.985,0,0,0,3.914,2.8,3.625,3.625,0,0,0,3.749-3.607c0-1.863-1.273-2.641-2.57-3.183s-2.57-.919-2.57-1.933a1.343,1.343,0,0,1,1.367-1.226,1.53,1.53,0,0,1,1.091.507" fill="#005051"/>
          <path id="Path_2055" data-name="Path 2055" d="M624.379,851.038a1.467,1.467,0,0,1,.68.173,1.279,1.279,0,0,1,.513.513,1.433,1.433,0,0,1,.185.686,1.365,1.365,0,0,1-.185.686,1.259,1.259,0,0,1-.507.508,1.413,1.413,0,0,1-.686.184v-.232a1.162,1.162,0,0,0,.573-.149,1.08,1.08,0,0,0,.424-.424,1.183,1.183,0,0,0,0-1.146,1.02,1.02,0,0,0-.43-.423,1.145,1.145,0,0,0-.567-.149Zm0,1.581a1.7,1.7,0,0,1,.221.322l.131.233h.292l-.185-.293a1.587,1.587,0,0,0-.214-.292.169.169,0,1,1,.179-.215.391.391,0,0,0,.119-.28.356.356,0,0,0-.072-.215.335.335,0,0,0-.185-.143,1.032,1.032,0,0,0-.286-.042v.2a.4.4,0,0,1,.149.024.189.189,0,0,1,.1.078.185.185,0,0,1,.035.113.2.2,0,0,1-.077.167.371.371,0,0,1-.209.059Zm0,1.169a1.388,1.388,0,0,1-.68-.184,1.312,1.312,0,0,1-.513-.508,1.423,1.423,0,0,1-.179-.686,1.368,1.368,0,0,1,.185-.686,1.243,1.243,0,0,1,.513-.513,1.462,1.462,0,0,1,.674-.173v.227a1.124,1.124,0,0,0-.561.149,1.012,1.012,0,0,0-.429.423,1.13,1.13,0,0,0,0,1.146,1.072,1.072,0,0,0,.423.424,1.139,1.139,0,0,0,.567.149Zm0-2.094h-.6v1.48h.238v-.632h.143a.29.29,0,0,1,.191.053c.012.006.018.018.03.024v-.281h-.364v-.447h.274a.422.422,0,0,1,.09.006Z" fill="#005051"/>
        </g>
      </g>
    </g>
  </g>
</svg>
