<svg xmlns="http://www.w3.org/2000/svg" width="117" height="103.3" viewBox="0 0 117 103.3">
  <g id="Group_2525" data-name="Group 2525" transform="translate(-18 -156.705)">
    <path id="Subtraction_38" data-name="Subtraction 38" d="M117,65.3,32.5,65A32.508,32.508,0,0,1,19.849,2.554,32.3,32.3,0,0,1,32.5,0L117-.364v.008c-.207.212-.164,4.374-.094,11.27.033,3.213.07,6.855.094,11.04V44.9c0,1.412-.007,2.785-.01,4.107v.01c-.021,8.526-.037,14.686.01,16.021v.26Z" transform="translate(18 176)" fill="#f7f7f7"/>
    <path id="Path_2088" data-name="Path 2088" d="M160.487,174.7S180,175.081,180,194c.255-.466.262-19.3.262-19.3Z" transform="translate(-54.017 66.001)" fill="#f7f7f7"/>
    <path id="Path_2045" data-name="Path 2045" d="M160.487,194S180,193.626,180,174.7h.262v21.69Z" transform="translate(-54.017 -17.999)" fill="#f7f7f7"/>
  </g>
</svg>
