<?xml version="1.0" encoding="utf-8"?>
<!-- Generator: Adobe Illustrator 23.1.0, SVG Export Plug-In . SVG Version: 6.00 Build 0)  -->
<svg version="1.1" id="Layer_1" xmlns="http://www.w3.org/2000/svg" xmlns:xlink="http://www.w3.org/1999/xlink" x="0px" y="0px"
	 viewBox="0 0 54.5 54.5" style="enable-background:new 0 0 54.5 54.5;" xml:space="preserve">
<style type="text/css">
	.st0{fill:#EDEDED;}
</style>
<g id="Subtraction_42">
	<path class="st0" d="M54,53.3L1.2,0.5h45c2.1,0,4.1,0.8,5.5,2.3C53.2,4.3,54,6.2,54,8.3V53.3z"/>
	<path class="st0" d="M53.5,52.1V8.3c0-2-0.8-3.8-2.1-5.2C50,1.8,48.2,1,46.2,1H2.4L53.5,52.1 M54.5,54.5L0,0h46.2
		c2.2,0,4.3,0.9,5.9,2.4c1.6,1.6,2.4,3.7,2.4,5.9V54.5L54.5,54.5L54.5,54.5z"/>
</g>
</svg>
