<svg xmlns="http://www.w3.org/2000/svg" width="54.527" height="54.527" viewBox="0 0 54.527 54.527">
  <g id="Subtraction_42" data-name="Subtraction 42" fill="#276462">
    <path d="M 54.02737808227539 53.32028198242188 L 1.207097172737122 0.5000009536743164 L 46.20461654663086 0.5000009536743164 C 48.29419708251953 0.5000009536743164 50.25863647460938 1.313740968704224 51.73608779907227 2.791321039199829 C 53.21364593505859 4.268940925598145 54.02737808227539 6.233621120452881 54.02737808227539 8.323451042175293 L 54.02737808227539 53.32028198242188 Z" stroke="none"/>
    <path d="M 53.52737808227539 52.1131591796875 L 53.52737808227539 8.323451042175293 C 53.52737808227539 6.367170810699463 52.76565551757812 4.528050899505615 51.38251876831055 3.144860982894897 C 49.99950790405273 1.761720895767212 48.16062545776367 1.000000953674316 46.20461654663086 1.000000953674316 L 2.414217233657837 1.000000953674316 L 53.52737808227539 52.1131591796875 M 54.52737808227539 54.52738189697266 L -2.866210934371338e-06 9.484863312536618e-07 L 46.20461654663086 9.484863312536618e-07 C 48.42773818969727 9.484863312536618e-07 50.51776885986328 0.8657509684562683 52.08965682983398 2.437780857086182 C 53.66165542602539 4.009840965270996 54.52737808227539 6.100070953369141 54.52737808227539 8.323451042175293 L 54.52737808227539 54.5255126953125 L 54.52737808227539 54.52737045288086 L 54.52737808227539 54.52738189697266 Z" stroke="none" fill="#ededed"/>
  </g>
</svg>
