<svg xmlns="http://www.w3.org/2000/svg" xmlns:xlink="http://www.w3.org/1999/xlink" width="1736.351" height="71" viewBox="0 0 1736.351 71">
  <defs>
    <style>
      .cls-1 {
        fill: none;
      }

      .cls-2, .cls-3 {
        stroke: none;
      }

      .cls-3 {
        fill: #fff;
      }

      .cls-4 {
        filter: url(#Path_2123);
      }
    </style>
    <filter id="Path_2123" x="0" y="0" width="1736.351" height="71" filterUnits="userSpaceOnUse">
      <feOffset dy="3" input="SourceAlpha"/>
      <feGaussianBlur stdDeviation="3" result="blur"/>
      <feFlood flood-opacity="0.051"/>
      <feComposite operator="in" in2="blur"/>
      <feComposite in="SourceGraphic"/>
    </filter>
  </defs>
  <g class="cls-4" transform="matrix(1, 0, 0, 1, 0, 0)">
    <g id="Path_2123-2" data-name="Path 2123" class="cls-1" transform="translate(1449 6)">
      <path class="cls-2" d="M-1426.234,0H264.584a13.766,13.766,0,0,1,13.766,13.766V39.234A13.766,13.766,0,0,1,264.584,53H-1426.234A13.766,13.766,0,0,1-1440,39.234V13.766A13.766,13.766,0,0,1-1426.234,0Z"/>
      <path class="cls-3" d="M -1426.23388671875 1 C -1429.643798828125 1 -1432.849731445313 2.327915191650391 -1435.260986328125 4.739166259765625 C -1437.672241210938 7.150417327880859 -1439.000122070313 10.35625076293945 -1439.000122070313 13.76625061035156 L -1439.000122070313 39.23374938964844 C -1439.000122070313 42.64374923706055 -1437.672241210938 45.84958267211914 -1435.260986328125 48.26083374023438 C -1432.849731445313 50.67208480834961 -1429.643798828125 52 -1426.23388671875 52 L 264.58447265625 52 C 267.9945068359375 52 271.2003173828125 50.67208480834961 273.611328125 48.26083374023438 C 276.0225830078125 45.84958267211914 277.3504638671875 42.64374923706055 277.3504638671875 39.23374938964844 L 277.3504638671875 13.76625061035156 C 277.3504638671875 10.35625076293945 276.0225830078125 7.150417327880859 273.611328125 4.739166259765625 C 271.2003173828125 2.327915191650391 267.9945068359375 1 264.58447265625 1 L -1426.23388671875 1 M -1426.23388671875 0 L 264.58447265625 0 C 272.1871337890625 0 278.3504638671875 6.163333892822266 278.3504638671875 13.76625061035156 L 278.3504638671875 39.23374938964844 C 278.3504638671875 46.83666610717773 272.1871337890625 53 264.58447265625 53 L -1426.23388671875 53 C -1433.836791992188 53 -1440.000122070313 46.83666610717773 -1440.000122070313 39.23374938964844 L -1440.000122070313 13.76625061035156 C -1440.000122070313 6.163333892822266 -1433.836791992188 0 -1426.23388671875 0 Z"/>
    </g>
  </g>
</svg>
