<svg xmlns="http://www.w3.org/2000/svg" width="15.929" height="15.296" viewBox="0 0 15.929 15.296">
  <g id="XMLID_2123_" transform="translate(0.52 0.5)">
    <g id="XMLID_2119_">
      <path id="XMLID_871_" d="M24.232,14.277a1.186,1.186,0,0,1-.7-.231,1.171,1.171,0,0,1-.432-1.331l1.214-3.727L21.139,6.694a1.189,1.189,0,0,1,.7-2.153h3.916L26.946.825A1.171,1.171,0,0,1,28.077,0h0A1.171,1.171,0,0,1,29.21.823l1.206,3.719h.425a.316.316,0,1,1,0,.633h-.655a.316.316,0,0,1-.3-.219L28.608,1.018a.542.542,0,0,0-.529-.385h0a.543.543,0,0,0-.529.386L26.283,4.954a.316.316,0,0,1-.3.219H21.835a.557.557,0,0,0-.326,1.008L24.873,8.61a.316.316,0,0,1,.116.354L23.7,12.911a.557.557,0,0,0,.857.622l3.355-2.444a.316.316,0,0,1,.372,0l3.343,2.43a.557.557,0,0,0,.856-.624L31.2,8.968a.316.316,0,0,1,.115-.355l3.355-2.433a.557.557,0,0,0-.327-1.007h-.655a.316.316,0,1,1,0-.633h.655a1.189,1.189,0,0,1,.7,2.152l-3.169,2.3L33.087,12.7a1.189,1.189,0,0,1-1.829,1.333L28.1,11.736l-3.168,2.308a1.186,1.186,0,0,1-.7.232Z" transform="translate(-20.643 0)" fill="#fff" stroke="#fff" stroke-width="1"/>
    </g>
  </g>
</svg>
